# xmcd
#
# Track frame offsets:
# 150
# 17498
# 44100
# 69895
# 98652
#
# Disc length: 1777 seconds
#
#
# Revision: 2
# Processed by: cddbd v1.5.2PL0 Copyright (c) Steve Scherf et al.
# Submitted via: FreeRIP 2.70 
#
DISCID=3606ef05
DTITLE=Banaroo - Sind and Move
DYEAR=2006
DGENRE=Dance
TTITLE0=Sing and Move (Album Version)
TTITLE1=Sing and Move (Extrend Version)
TTITLE2=Sing and Move (DB Mix)
TTITLE3=Sing and Move (Instrumental Version)
TTITLE4=Sind and Move (Video)
EXTD=
EXTT0=
EXTT1=
EXTT2=
EXTT3=
EXTT4=
PLAYORDER=
